<?xml version="1.0" encoding="utf-8"?>
<!-- Generator: Adobe Illustrator 24.0.0, SVG Export Plug-In . SVG Version: 6.00 Build 0)  -->
<svg version="1.1" id="레이어_1" xmlns="http://www.w3.org/2000/svg" xmlns:xlink="http://www.w3.org/1999/xlink" x="0px"
	 y="0px" viewBox="0 0 8.8 8" style="enable-background:new 0 0 8.8 8;" xml:space="preserve">
<style type="text/css">
	.st0{fill:#0332E9;}
</style>
<g>
	<path class="st0" d="M5.3,7.1C1.6,7.1,0.9,4.3,0.9,3.9c0,0,0-0.1,0-0.1c-0.2-1,0.4-1.9,1.4-2.1c0.7-0.2,1.4,0.1,1.8,0.6
		c0.1,0.1,0.3,0.1,0.3-0.1C4.5,1.6,5,1,5.7,0.9c1-0.2,2,0.4,2.2,1.4C7.9,2.2,8.8,5.4,5.3,7.1z"/>
	<path d="M5.3,8C5.3,8,5.3,8,5.3,8C0.9,7.9,0.1,4.5,0.1,4.1l0-0.1c-0.3-1.4,0.6-2.8,2-3.1c0.7-0.2,1.3-0.1,1.9,0.3
		c0.4-0.5,0.9-0.9,1.6-1.1c1.4-0.3,2.9,0.6,3.2,2c0.4,1.3,0.2,4.2-3,5.8C5.6,7.9,5.5,8,5.3,8z M2.7,2.5c-0.1,0-0.2,0-0.2,0
		C1.9,2.6,1.6,3.1,1.7,3.7l0,0.1c0.1,0.4,0.6,2.4,3.4,2.5c2.5-1.4,2-3.6,2-3.8C7,1.9,6.4,1.6,5.9,1.7C5.5,1.8,5.2,2.1,5.2,2.4
		C5.1,2.8,4.8,3.1,4.4,3.2c-0.4,0.1-0.7,0-1-0.3C3.2,2.6,2.9,2.5,2.7,2.5z"/>
</g>
</svg>
